<?xml version="1.0" encoding="utf-8"?>
<!-- Generator: Adobe Illustrator 24.0.1, SVG Export Plug-In . SVG Version: 6.00 Build 0)  -->
<svg version="1.1" id="Calque_1" xmlns="http://www.w3.org/2000/svg" xmlns:xlink="http://www.w3.org/1999/xlink" x="0px" y="0px"
	 viewBox="0 0 289.8 107.3" style="enable-background:new 0 0 289.8 107.3;" xml:space="preserve">
<rect fill="#120d0e" x="90.8" y="5.4" transform="matrix(0.8668 -0.4987 0.4987 0.8668 6.2325 51.4974)" width="17.3" height="17.3"/>
<path fill="#120d0e" d="M186.5,90.9c0.3,0.5,24.7,32.9,63,5c-3.1-6.4-8.4-13.2-8.4-13.2C215.9,105.5,186.5,90.9,186.5,90.9z"/>
<path fill="#120d0e" d="M42.3,43.6H27.5v18.1c0,1.5,0.1,2.9,0.2,4.1c0.1,1.2,0.5,2.3,1,3.2c0.5,0.9,1.3,1.6,2.4,2.1c1.1,0.5,2.5,0.7,4.3,0.7
	c0.9,0,2.1-0.1,3.5-0.3c1.5-0.2,2.5-0.6,3.3-1.3v14c-1.9,0.7-3.8,1.1-5.8,1.3s-4,0.3-5.9,0.3c-2.8,0-5.5-0.3-7.8-0.9
	c-2.4-0.6-4.5-1.5-6.3-2.9c-1.8-1.3-3.2-3-4.2-5.1s-1.5-4.6-1.5-7.6V43.6H0V30.2h10.7V14.1h16.8v16.1h14.8V43.6z"/>
<path fill="#120d0e" d="M48,30.2h16.8v8.7H65c1.8-3.4,3.9-5.9,6.4-7.5c2.5-1.7,5.6-2.5,9.3-2.5c1,0,1.9,0,2.9,0.1c1,0.1,1.9,0.2,2.7,0.5v15.3
	c-1.2-0.4-2.4-0.6-3.5-0.8s-2.4-0.3-3.6-0.3c-3.2,0-5.8,0.5-7.6,1.3c-1.9,0.9-3.3,2.1-4.3,3.8c-1,1.6-1.7,3.5-2,5.8
	c-0.3,2.2-0.5,4.7-0.5,7.4v22.7H48L48,30.2L48,30.2z"/>
<path fill="#120d0e" d="M91.1,30.2h16.8v54.4H91.1V30.2z"/>
<path fill="#120d0e" d="M118.7,0h16.8v36h0.2c1.9-2.6,4.4-4.5,7.4-5.5c3-1.1,6.3-1.6,9.8-1.6c3.9,0,7.4,0.8,10.4,2.4c3.1,1.6,5.6,3.8,7.8,6.4
	s3.8,5.8,4.9,9.2c1.2,3.5,1.7,7.1,1.7,10.9c0,4.1-0.6,7.9-1.9,11.3s-3.1,6.4-5.4,8.9s-5.2,4.4-8.5,5.8s-6.9,2.1-11,2.1
	c-1.9,0-3.8-0.3-5.5-0.8c-1.7-0.5-3.3-1.2-4.8-2c-1.5-0.8-2.7-1.7-3.8-2.7c-1.1-1-2-2-2.6-3h-0.2v7.2h-15.4V0z M134.2,57.4
	c0,4.1,1.2,7.4,3.5,10c2.4,2.5,5.6,3.8,9.9,3.8s7.5-1.3,9.9-3.8c2.4-2.5,3.5-5.9,3.5-10s-1.2-7.4-3.5-10c-2.4-2.5-5.6-3.8-9.9-3.8
	s-7.5,1.3-9.9,3.8C135.4,50,134.2,53.3,134.2,57.4z"/>
<path fill="#120d0e" d="M236.5,75.2c-2.7,3.4-6.1,6.1-10.2,8c-4.1,1.9-8.4,2.8-12.8,2.8c-4.2,0-8.1-0.7-11.8-2c-3.7-1.3-6.9-3.3-9.6-5.8
	s-4.9-5.5-6.4-9c-1.6-3.5-2.4-7.4-2.4-11.8s0.8-8.2,2.4-11.8s3.7-6.5,6.4-9s5.9-4.4,9.6-5.8s7.6-2,11.8-2c3.9,0,7.4,0.7,10.6,2
	c3.2,1.3,5.9,3.3,8.1,5.8s3.9,5.5,5.1,9s1.8,7.4,1.8,11.8v5.3h-38.9c0.7,3.2,2.1,5.8,4.4,7.7c2.2,1.9,5,2.9,8.3,2.9
	c2.8,0,5.1-0.6,7-1.9s3.6-2.8,5-4.8L236.5,75.2z M222.3,51.3c0.1-2.8-0.9-5.3-2.8-7.3c-1.9-2-4.4-3-7.5-3c-1.9,0-3.5,0.3-4.9,0.9
	c-1.4,0.6-2.6,1.4-3.6,2.3c-1,0.9-1.8,2-2.4,3.2c-0.6,1.2-0.9,2.5-1,3.9L222.3,51.3L222.3,51.3z"/>
<path fill="#120d0e" d="M277.3,46.2c-2.5-3.1-5.7-4.6-9.7-4.6c-1.4,0-2.8,0.3-4.1,1s-2,1.8-2,3.5c0,1.3,0.7,2.3,2.1,3c1.4,0.6,3.1,1.2,5.3,1.7
	s4.4,1,6.8,1.6c2.4,0.6,4.7,1.4,6.8,2.6s3.9,2.8,5.3,4.9s2.1,4.8,2.1,8.2c0,3.5-0.8,6.4-2.3,8.7c-1.5,2.3-3.5,4.1-5.9,5.5
	s-5.1,2.4-8.1,2.9c-3,0.6-5.9,0.8-8.8,0.8c-3.8,0-7.7-0.5-11.5-1.6s-7.2-3-9.8-5.8l10.2-11.3c1.6,1.9,3.3,3.4,5.2,4.4
	s4.1,1.5,6.7,1.5c1.9,0,3.7-0.3,5.3-0.8s2.3-1.6,2.3-3.1c0-1.4-0.7-2.5-2.1-3.2s-3.1-1.3-5.3-1.8c-2.1-0.5-4.4-1-6.8-1.6
	s-4.7-1.4-6.8-2.5s-3.9-2.7-5.3-4.8c-1.4-2-2.1-4.8-2.1-8.2c0-3.2,0.7-6,2-8.3s3-4.2,5.2-5.7c2.1-1.5,4.6-2.6,7.3-3.3
	s5.6-1.1,8.4-1.1c3.6,0,7.2,0.5,10.9,1.6c3.7,1,6.8,2.9,9.3,5.6L277.3,46.2z"/>
</svg>
