<?xml version="1.0" encoding="utf-8"?>
<!-- Generator: Adobe Illustrator 24.0.1, SVG Export Plug-In . SVG Version: 6.00 Build 0)  -->
<svg version="1.1" id="Calque_1" xmlns="http://www.w3.org/2000/svg" xmlns:xlink="http://www.w3.org/1999/xlink" x="0px" y="0px"
	 viewBox="0 0 159.3 135" style="enable-background:new 0 0 159.3 135;" xml:space="preserve">
<path fill="#120d0e" d="M0,32.2l9.7,16.2c0,0,3.4-9,13.7-14.1C33.6,29,39,42.4,31.5,46.5S18,51.7,18,51.7l5.2,16.7c0,0,14.9-8.8,21.7,2.7
	c5.5,11.9-1,18.7-6.2,20.4c-5.2,1.7-25.1,6-34.4-17.9c-3.5,31.6,23.6,37.7,38.4,34.2c4.5-1.3,25.1-8,22.3-31.6
	c-3-22.4-17.4-21.9-27.2-22.2c2.3-1.7,20.5-11.9,10.5-30.1C34.9,1.6,0,32.2,0,32.2z"/>
<path fill="#120d0e" d="M70.8,47.5l1.5-14.6l26.8,12.8l7-17.9c0,0-28.5-10.4-36.1-12.4c-1.7,1.3-13.1,27.8-13.3,44c-0.6,23.8,4,49.3,28.4,49
	c24.4-0.3,26.4-18.3,26.8-33.5C111,46.4,70.8,47.5,70.8,47.5z M93,89.3c-6.8,5-23.4,4.1-22.3-28.1c6.7-0.2,16.3-0.5,23,8.1
	C99.1,76.2,99.8,84.3,93,89.3z"/>
<path fill="#120d0e" d="M113.6,31.2c-15.9,23.4,34.2,41,23.4,55.6s-25.7-9.9-19.3-23.6c-16.6,13.5-15.4,40.2,8.5,44.1c21.6,3.6,28.7-13.5,30.5-20.8
	c4.5-23-23.9-31.8-27.1-33.6c-14.3-6.2-2.4-21.5,7.6-15.4c4.6,3.8,1.2,12,1.2,12s8,7.3,15,13.3C175.9,30.9,128.1,11.4,113.6,31.2z"
	/>
<rect fill="#120d0e" x="87.3" y="2.8" transform="matrix(0.8668 -0.4987 0.4987 0.8668 7.4847 48.6919)" width="15.1" height="15.1"/>
<path fill="#120d0e" d="M49.1,116.5c0.3,0.6,27.9,37.2,71.1,5.7c-3.5-7.2-9.5-14.9-9.5-14.9C82.3,132.9,49.1,116.5,49.1,116.5z"/>
</svg>
