<svg height="111.848341" viewBox="0 0 400 111.84834123" width="400" xmlns="http://www.w3.org/2000/svg"><path d="m343.167 31.046c-.046.046-1.217.169-2.603.274-10.414.787-16.982 6.475-17.512 15.164-.356 5.849 3.975 11.255 10.208 12.741 1.105.264 2.12.547 8.795 2.455 5.558 1.589 5.455 1.549 6.632 2.625 2.027 1.852 1.629 3.646-1.115 5.028l-1.489.75-3.448.056-3.449.057-2.756-.678c-1.516-.372-3.189-.859-3.718-1.08-.529-.222-1.487-.559-2.129-.749-.641-.19-1.579-.608-2.083-.93-1.068-.68-1.64-.739-2.12-.217-.498.541-2.304 4.228-2.639 5.388-.157.543-.463 1.39-.68 1.882-.714 1.621-.409 2.064 2.404 3.494 7.651 3.889 20 4.613 27.814 1.632 2.812-1.074 7.102-4.45 8.029-6.319 3.325-6.708 2.535-12.891-2.125-16.621-2.503-2.004-8.835-4.288-16.622-5.995-5.66-1.242-7.595-3.776-4.924-6.447 2.682-2.682 11.165-2.421 17.319.532 2.194 1.053 3.024.579 3.8-2.171.155-.55.656-1.81 1.113-2.799.988-2.139 1.225-3.553.696-4.139-1.28-1.416-7.74-3.328-12.315-3.644-1.1-.076-2.675-.191-3.5-.255s-1.538-.079-1.583-.034m-307.608 1.118c-.852.347-.892.586-.892 5.258 0 4.612-.035 4.367.714 5.113.02.019 2.977.076 6.573.125 6.524.09 6.538.091 6.917.47l.379.379.086 17.787c.048 9.783.104 17.803.125 17.823.022.019.203.188.404.375.416.387 11.448.54 12.144.168.852-.456.824.159.827-18.445.002-13.588.047-17.39.212-17.717.379-.751.938-.814 7.335-.824 7.937-.012 7.117.604 7.117-5.347v-4.31l-.402-.468-.402-.468-20.39-.032c-11.281-.018-20.549.033-20.747.113m61.975.004c-.786.329-.888 1.003-.834 5.527l.05 4.168.468.402.467.402 9.949.003c11.757.004 12.8.084 14.973 1.158 3.413 1.686 4.388 6.718 1.961 10.119-1.051 1.473-1.627 1.807-3.969 2.303l-1.967.417h-10.305c-6.423 0-10.469.062-10.741.165-.931.354-.933.384-.882 11.772l.046 10.425.468.402.467.402h5.754 5.753l.487-.487.488-.487.009-5.055c.013-7.066-.235-6.667 4.104-6.599 3.601.057 3.083-.335 6.72 5.081 3.492 5.2 4.678 6.791 5.386 7.222.499.305.884.324 6.535.325 6.607 0 6.746-.02 6.746-.979 0-.46-5.248-8.548-7.367-11.354-1.696-2.246-1.68-2.61.178-3.911 5.298-3.713 7.685-9.115 7.035-15.922-.483-5.051-2.157-7.911-6.846-11.691-1.849-1.491-6.29-3.129-9.719-3.586-2.389-.319-24.716-.513-25.414-.222m64.685.076c-.933.406-.906-.377-.852 24.145l.05 22.64.467.402.468.402 5.699-.002c6.285-.003 6.394-.019 6.731-1.002.15-.437.199-6.025.199-22.829 0-24.313.046-23.195-.981-23.708-.784-.392-10.896-.433-11.781-.048m37.512-.005c-.797.347-.898.883-.898 4.778 0 3.627.083 4.134.727 4.46.241.122 3.913.2 11.357.241 12.254.067 13.49.156 15.154 1.091 2.552 1.434 2.662 5.322.198 6.981-1.702 1.146-1.235 1.107-14.519 1.205-12.656.093-12.321.068-12.684.937-.293.702-.332 6.735-.048 7.548.367 1.054-.069 1.02 13.015 1.02 16.034.001 16.801.134 18.09 3.135 1.265 2.948-.476 5.275-4.706 6.29-.275.066-6.18.166-13.121.222l-12.62.103-.38.379c-.839.839-.618 8.343.264 8.961.415.291 25.805.356 29.409.076 10.898-.847 16.38-6.746 14.779-15.903-.463-2.649-2.995-6.008-5.665-7.516-1.931-1.09-1.917-1.3.227-3.487 2.443-2.493 3.271-4.383 3.472-7.927.397-7.015-5.475-11.855-15.365-12.664-3.262-.267-26.05-.207-26.686.07m66.396.021c-.657.358-.71.736-.71 4.99 0 4.417.081 4.807 1.061 5.09.411.119 6.282.16 18.309.126l17.704-.049.379-.38c.373-.372.381-.458.429-4.69l.05-4.31-.41-.477-.41-.477-17.973-.036c-15.668-.031-18.031-.004-18.429.213m-.13 18.542c-.96.778-.949 8.793.013 9.573.338.274 1.469.292 18.433.292h18.072l.409-.409.409-.41v-4.083c0-4.33-.065-4.756-.776-5.08-.799-.364-36.106-.251-36.56.117m.783 18.691c-1.286.253-1.424.767-1.433 5.34-.006 3.377.119 4.268.663 4.709.463.374 36.186.45 36.671.078.598-.459.652-.874.652-4.951 0-4.225-.083-4.765-.785-5.107-.365-.178-34.877-.245-35.768-.069" fill="#fc3c44" fill-rule="evenodd"/></svg>