<svg enable-background="new 0 0 227.4 145.2" viewBox="0 0 227.4 145.2" xmlns="http://www.w3.org/2000/svg"><path fill="#FFFFFF" d="m160.8 111.1h5.8v5.8h-5.8z" transform="matrix(.8668 -.4987 .4987 .8668 -35.0184 96.8172)"/><path fill="#FFFFFF" d="m192.8 139.7c.1.2 8.3 11 21.1 1.7-1-2.1-2.8-4.4-2.8-4.4-8.4 7.6-18.3 2.7-18.3 2.7z"/><path fill="#FFFFFF" d="m144.5 123.9h-5v6.1c0 .5 0 1 .1 1.4 0 .4.2.8.3 1.1.2.3.4.5.8.7s.8.2 1.4.2c.3 0 .7 0 1.2-.1s.9-.2 1.1-.4v4.7c-.6.2-1.3.4-2 .5s-1.3.1-2 .1c-1 0-1.8-.1-2.6-.3s-1.5-.5-2.1-1-1.1-1-1.4-1.7-.5-1.5-.5-2.5v-8.7h-3.6v-4.5h3.6v-5.5h5.6v5.4h5z"/><path fill="#FFFFFF" d="m146.4 119.4h5.6v2.9h.1c.6-1.1 1.3-2 2.1-2.5.8-.6 1.9-.8 3.1-.8h1s.6.1.9.1v5.1c-.4-.1-.8-.2-1.2-.3s-.8-.1-1.2-.1c-1.1 0-1.9.1-2.5.5-.6.3-1.1.7-1.4 1.3-.3.5-.6 1.2-.7 1.9s-.1 1.6-.1 2.5v7.6h-5.6v-18.2z"/><path fill="#FFFFFF" d="m160.9 119.4h5.6v18.2h-5.6z"/><path fill="#FFFFFF" d="m170.1 109.3h5.6v12.1h.1c.6-.9 1.5-1.5 2.5-1.9s2.1-.5 3.3-.5c1.3 0 2.5.3 3.5.8s1.9 1.3 2.6 2.2 1.3 1.9 1.6 3.1c.4 1.2.6 2.4.6 3.7 0 1.4-.2 2.6-.6 3.8-.4 1.1-1 2.1-1.8 3s-1.7 1.5-2.8 2-2.3.7-3.7.7c-.6 0-1.3-.1-1.8-.3-.6-.2-1.1-.4-1.6-.7s-.9-.6-1.3-.9-.7-.7-.9-1h-.1v2.4h-5.2zm5.2 19.2c0 1.4.4 2.5 1.2 3.3.8.9 1.9 1.3 3.3 1.3s2.5-.4 3.3-1.3 1.2-2 1.2-3.3c0-1.4-.4-2.5-1.2-3.3-.8-.9-1.9-1.3-3.3-1.3s-2.5.4-3.3 1.3c-.8.8-1.2 1.9-1.2 3.3z"/><path fill="#FFFFFF" d="m209.6 134.5c-.9 1.1-2 2-3.4 2.7-1.4.6-2.8.9-4.3.9-1.4 0-2.7-.2-4-.7-1.2-.5-2.3-1.1-3.2-1.9s-1.6-1.8-2.2-3c-.5-1.2-.8-2.5-.8-3.9 0-1.5.3-2.8.8-3.9.5-1.2 1.2-2.2 2.2-3 .9-.8 2-1.5 3.2-1.9 1.2-.5 2.6-.7 4-.7 1.3 0 2.5.2 3.5.7s2 1.1 2.7 1.9 1.3 1.8 1.7 3 .6 2.5.6 3.9v1.8h-13c.2 1.1.7 1.9 1.5 2.6s1.7 1 2.8 1c.9 0 1.7-.2 2.3-.6s1.2-.9 1.7-1.6zm-4.8-8.1c0-1-.3-1.8-.9-2.4-.6-.7-1.5-1-2.5-1-.6 0-1.2.1-1.6.3-.5.2-.9.5-1.2.8s-.6.7-.8 1.1-.3.8-.3 1.3z"/><path fill="#FFFFFF" d="m223.3 124.7c-.8-1-1.9-1.5-3.3-1.5-.5 0-.9.1-1.4.3s-.7.6-.7 1.2c0 .5.2.8.7 1s1 .4 1.8.6 1.5.3 2.3.5 1.6.5 2.3.9 1.3.9 1.8 1.6.7 1.6.7 2.8-.3 2.1-.8 2.9-1.2 1.4-2 1.8c-.8.5-1.7.8-2.7 1s-2 .3-3 .3c-1.3 0-2.6-.2-3.9-.5-1.3-.4-2.4-1-3.3-1.9l3.4-3.8c.5.6 1.1 1.1 1.7 1.5.6.3 1.4.5 2.2.5.7 0 1.2-.1 1.8-.3s.8-.5.8-1-.2-.8-.7-1.1c-.5-.2-1-.4-1.8-.6s-1.5-.3-2.3-.5-1.6-.5-2.3-.8c-.7-.4-1.3-.9-1.8-1.6s-.7-1.6-.7-2.8c0-1.1.2-2 .7-2.8s1-1.4 1.7-1.9 1.5-.9 2.5-1.1c.9-.2 1.9-.4 2.8-.4 1.2 0 2.4.2 3.6.5 1.2.4 2.3 1 3.1 1.9z"/><path fill="#FFFFFF" d="m0 32.2 9.7 16.2s3.4-9 13.7-14.1c10.2-5.3 15.6 8.1 8.1 12.2s-13.5 5.2-13.5 5.2l5.2 16.8s14.9-8.8 21.7 2.7c5.5 11.9-1 18.7-6.2 20.4s-25.1 6-34.4-17.9c-3.5 31.6 23.6 37.7 38.4 34.2 4.5-1.3 25.1-8 22.3-31.6-3-22.4-17.4-21.9-27.2-22.2 2.3-1.7 20.5-11.9 10.5-30.1-13.4-22.4-48.3 8.2-48.3 8.2z"/><path fill="#FFFFFF" d="m70.8 47.5 1.5-14.6 26.8 12.8 7-17.9s-28.5-10.4-36.1-12.4c-1.7 1.3-13.1 27.8-13.3 44-.6 23.8 4 49.3 28.4 49s26.4-18.3 26.8-33.5c-.9-28.5-41.1-27.4-41.1-27.4zm22.2 41.8c-6.8 5-23.4 4.1-22.3-28.1 6.7-.2 16.3-.5 23 8.1 5.4 6.9 6.1 15-.7 20z"/><path fill="#FFFFFF" d="m113.6 31.2c-15.9 23.4 34.2 41 23.4 55.6s-25.7-9.9-19.3-23.6c-16.6 13.5-15.4 40.2 8.5 44.1 21.6 3.6 28.7-13.5 30.5-20.8 4.5-23-23.9-31.8-27.1-33.6-14.3-6.2-2.4-21.5 7.6-15.4 4.6 3.8 1.2 12 1.2 12s8 7.3 15 13.3c22.5-31.9-25.3-51.4-39.8-31.6z"/><path fill="#FFFFFF" d="m87.3 2.8h15.1v15.1h-15.1z" transform="matrix(.8668 -.4987 .4987 .8668 7.4847 48.6918)"/><path fill="#FFFFFF" d="m49.1 116.5c.3.6 27.9 37.2 71.1 5.7-3.5-7.2-9.5-14.9-9.5-14.9-28.4 25.6-61.6 9.2-61.6 9.2z"/></svg>